<svg id="visual" viewBox="0 0 900 600" width="900" height="600" xmlns="http://www.w3.org/2000/svg" xmlns:xlink="http://www.w3.org/1999/xlink" version="1.1"><rect x="0" y="0" width="900" height="600" fill="#FFFFFF"></rect><path d="M0 382L21.5 381.2C43 380.3 86 378.7 128.8 389.2C171.7 399.7 214.3 422.3 257.2 430.2C300 438 343 431 385.8 418.2C428.7 405.3 471.3 386.7 514.2 383C557 379.3 600 390.7 642.8 394.8C685.7 399 728.3 396 771.2 387.5C814 379 857 365 878.5 358L900 351L900 601L878.5 601C857 601 814 601 771.2 601C728.3 601 685.7 601 642.8 601C600 601 557 601 514.2 601C471.3 601 428.7 601 385.8 601C343 601 300 601 257.2 601C214.3 601 171.7 601 128.8 601C86 601 43 601 21.5 601L0 601Z" fill="#69a6fa"></path><path d="M0 480L21.5 470.2C43 460.3 86 440.7 128.8 433.5C171.7 426.3 214.3 431.7 257.2 430.3C300 429 343 421 385.8 425.2C428.7 429.3 471.3 445.7 514.2 446C557 446.3 600 430.7 642.8 428.7C685.7 426.7 728.3 438.3 771.2 445.8C814 453.3 857 456.7 878.5 458.3L900 460L900 601L878.5 601C857 601 814 601 771.2 601C728.3 601 685.7 601 642.8 601C600 601 557 601 514.2 601C471.3 601 428.7 601 385.8 601C343 601 300 601 257.2 601C214.3 601 171.7 601 128.8 601C86 601 43 601 21.5 601L0 601Z" fill="#2bb5f5"></path><path d="M0 443L21.5 444C43 445 86 447 128.8 452C171.7 457 214.3 465 257.2 467.8C300 470.7 343 468.3 385.8 467.2C428.7 466 471.3 466 514.2 472.8C557 479.7 600 493.3 642.8 494.7C685.7 496 728.3 485 771.2 478.3C814 471.7 857 469.3 878.5 468.2L900 467L900 601L878.5 601C857 601 814 601 771.2 601C728.3 601 685.7 601 642.8 601C600 601 557 601 514.2 601C471.3 601 428.7 601 385.8 601C343 601 300 601 257.2 601C214.3 601 171.7 601 128.8 601C86 601 43 601 21.5 601L0 601Z" fill="#00bfe4"></path><path d="M0 490L21.5 498.2C43 506.3 86 522.7 128.8 525C171.7 527.3 214.3 515.7 257.2 514.2C300 512.7 343 521.3 385.8 524C428.7 526.7 471.3 523.3 514.2 523.7C557 524 600 528 642.8 530.3C685.7 532.7 728.3 533.3 771.2 529C814 524.7 857 515.3 878.5 510.7L900 506L900 601L878.5 601C857 601 814 601 771.2 601C728.3 601 685.7 601 642.8 601C600 601 557 601 514.2 601C471.3 601 428.7 601 385.8 601C343 601 300 601 257.2 601C214.3 601 171.7 601 128.8 601C86 601 43 601 21.5 601L0 601Z" fill="#00c6c6"></path><path d="M0 538L21.5 542.2C43 546.3 86 554.7 128.8 559C171.7 563.3 214.3 563.7 257.2 564.8C300 566 343 568 385.8 561.7C428.7 555.3 471.3 540.7 514.2 533.2C557 525.7 600 525.3 642.8 533.3C685.7 541.3 728.3 557.7 771.2 561.3C814 565 857 556 878.5 551.5L900 547L900 601L878.5 601C857 601 814 601 771.2 601C728.3 601 685.7 601 642.8 601C600 601 557 601 514.2 601C471.3 601 428.7 601 385.8 601C343 601 300 601 257.2 601C214.3 601 171.7 601 128.8 601C86 601 43 601 21.5 601L0 601Z" fill="#24c795"></path></svg>